#!OML:ASF H:\Terrain\Walking\May29\JustinRory\Justin.ASF
:FULLY-SPECIFIED
:DEGREES
98
root 15.5109 17.5652 1.10902 -178.143 -29.5617 -181.781
lowerback 9.23877 3.10492 -3.41067
upperback 1.79266 3.69082 0.0232457
thorax -3.52733 1.82163 1.48687
lowerneck -6.94649 -11.4472 -16.1399
upperneck 19.0601 -16.2591 9.61888
head 9.24292 -8.21808 3.95345
rclavicle -1.66532e-013 1.99779e-014
rhumerus 5.45006 -9.10873 -56.2914
rradius 48.0568
rwrist -26.2654
rhand -15.4102 27.431
rfingers 7.12502
rthumb 10.7691 -2.27298
lclavicle -1.66532e-013 1.99779e-014
lhumerus -27.6724 -3.54763 84.3068
lradius 53.8656
lwrist -3.44697
lhand 4.28791 37.1162
lfingers 7.12502
lthumb 29.6905 64.759
rfemur -27.294 -8.59227 9.53904
rtibia 48.7192
rfoot -10.7164 -7.63294
rtoes 4.85062
lfemur -18.7459 -11.3975 -23.9904
ltibia 39.6735
lfoot -12.1545 -16.0457
ltoes 6.34283
99
root 15.5389 17.5746 1.00158 -178.022 -31.0312 -181.692
lowerback 9.04013 2.89462 -3.2275
upperback 1.94585 3.4445 0.210254
thorax -3.24555 1.69281 1.62394
lowerneck -6.73292 -11.5921 -16.2699
upperneck 18.6846 -16.45 9.77218
head 9.12791 -8.3004 4.00973
rclavicle 1.15295e-014 -4.37326e-015
rhumerus 6.55215 -10.2617 -55.5973
rradius 46.8369
rwrist -25.9287
rhand -14.8668 27.567
rfingers 7.12502
rthumb 11.2932 -2.10896
lclavicle 1.15295e-014 -4.37326e-015
lhumerus -27.3067 -3.98108 84.7659
lradius 54.7886
lwrist -3.17041
lhand 3.28247 35.6559
lfingers 7.12502
lthumb 28.7304 63.4657
rfemur -27.0319 -6.85365 8.57406
rtibia 45.54
rfoot -9.23835 -7.23865
rtoes 0.291382
lfemur -18.8739 -11.6118 -23.7421
ltibia 39.9732
lfoot -12.4164 -16.535
ltoes 4.20869
100
root 15.5753 17.5831 0.892553 -177.964 -32.7184 -181.4
lowerback 9.06476 2.70082 -2.83189
upperback 1.84417 3.23595 0.35956
thorax -3.3402 1.59215 1.57915
lowerneck -6.19999 -11.8049 -16.2606
upperneck 18.4688 -16.8286 9.79814
head 9.01259 -8.49355 3.99111
rclavicle 5.76476e-014 -6.16232e-015
rhumerus 6.92389 -11.2779 -54.7214
rradius 45.775
rwrist -26.0759
rhand -13.9281 27.597
rfingers 7.12502
rthumb 12.1984 -2.02727
lclavicle 5.76476e-014 -6.16232e-015
lhumerus -27.5421 -4.82889 85.0386
lradius 56.1241
lwrist -3.04243
lhand 2.8675 34.5528
lfingers 7.12502
lthumb 28.3339 62.4291
rfemur -26.5609 -4.82357 7.62789
rtibia 42.2523
rfoot -7.54146 -6.8588
rtoes -3.51562
lfemur -19.1915 -11.6827 -23.2563
ltibia 40.4955
lfoot -12.342 -17.3689
ltoes 3.87183
101
root 15.6141 17.5668 0.786538 -178.251 -34.463 -180.752
lowerback 9.27505 2.55104 -2.18371
upperback 1.75985 3.10845 0.654957
thorax -3.52002 1.52788 1.52698
lowerneck -5.75639 -12.1062 -16.3898
upperneck 18.4192 -17.3393 9.8753
head 9.00791 -8.7518 3.9815
rclavicle 6.04305e-014 -1.76918e-014
rhumerus 7.0745 -12.4504 -53.8104
rradius 44.8551
rwrist -26.2159
rhand -13.1119 27.4389
rfingers 7.12502
rthumb 12.9853 -2.13701
lclavicle 6.04305e-014 -1.76918e-014
lhumerus -27.8578 -5.82184 85.486
lradius 57.5068
lwrist -3.05846
lhand 3.1734 35.6575
lfingers 7.12502
lthumb 28.6262 63.4849
rfemur -25.6764 -2.42637 6.79128
rtibia 38.9145
rfoot -6.00681 -6.73823
rtoes -4.52794
lfemur -19.4462 -11.8915 -22.4668
ltibia 41.177
lfoot -12.2875 -18.0688
ltoes 2.83063
102
root 15.6672 17.5342 0.679233 -178.852 -36.1011 -179.895
lowerback 9.50023 2.3938 -1.53184
upperback 1.8759 2.96613 1.05151
thorax -3.50607 1.44698 1.58463
lowerneck -5.34439 -12.3453 -16.7188
upperneck 18.0514 -17.7163 10.1746
head 8.92368 -8.93351 4.09743
rclavicle 2.01766e-014 -9.93923e-015
rhumerus 7.56776 -13.8215 -53.3089
rradius 43.8735
rwrist -26.0491
rhand -13.0566 27.4048
rfingers 7.12502
rthumb 13.0386 -2.16767
lclavicle 2.01766e-014 -9.93923e-015
lhumerus -27.8425 -6.47546 85.9249
lradius 58.6743
lwrist -3.15638
lhand 6.77024 40.8248
lfingers 7.12502
lthumb 32.057 68.0193
rfemur -24.6875 0.338365 6.1243
rtibia 35.8123
rfoot -4.71479 -6.99071
rtoes -5.09046
lfemur -19.686 -12.1783 -21.447
ltibia 42.0578
lfoot -12.4861 -18.6816
ltoes 1.36398
103
root 15.6707 17.5224 0.542172 -179.676 -36.4934 -179.396
lowerback 9.42413 2.6423 -0.917928
upperback 2.23405 3.34069 1.1799
thorax -3.08009 1.61526 1.33925
lowerneck -4.69791 -12.5518 -16.7544
upperneck 17.5377 -18.0661 10.3069
head 8.70097 -9.10826 4.13947
rclavicle -3.41413e-014 -3.57812e-015
rhumerus 7.93713 -15.0986 -52.8925
rradius 42.8865
rwrist -26.11
rhand -13.6252 27.7496
rfingers 7.12502
rthumb 12.4905 -1.85714
lclavicle -3.41413e-014 -3.57812e-015
lhumerus -27.7797 -7.10096 86.0252
lradius 59.7253
lwrist -3.02256
lhand 16.104 50.2398
lfingers 7.12502
lthumb 40.8898 75.1911
rfemur -23.5453 3.46542 5.23777
rtibia 33.0051
rfoot -2.84461 -6.54092
rtoes -8.79656
lfemur -19.122 -11.8697 -21.0275
ltibia 42.9513
lfoot -12.8957 -18.7007
ltoes 2.58369
104
root 15.732 17.5031 0.454125 -179.58 -38.9591 -179.049
lowerback 9.52575 2.27396 -0.38362
upperback 2.06525 2.9146 1.23834
thorax -3.27375 1.40429 1.1447
lowerneck -3.96894 -12.8103 -16.5245
upperneck 17.148 -18.5395 10.3446
head 8.48907 -9.34189 4.10096
rclavicle 9.33294e-014 -1.82882e-014
rhumerus 7.86266 -15.977 -51.7695
rradius 42.0401
rwrist -26.9381
rhand -13.4121 28.1012
rfingers 7.12502
rthumb 12.696 -1.49283
lclavicle 9.33294e-014 -1.82882e-014
lhumerus -27.8283 -8.085 86.0964
lradius 60.7651
lwrist -2.68392
lhand 16.8043 49.939
lfingers 7.12502
lthumb 41.5472 74.6789
rfemur -23.0107 4.86606 4.2042
rtibia 30.6943
rfoot -0.564159 -6.38333
rtoes -13.648
lfemur -20.0817 -12.9696 -20.4261
ltibia 43.8358
lfoot -12.0052 -19.5882
ltoes 7.74109
105
root 15.7887 17.4899 0.354974 -179.991 -41.0354 -178.354
lowerback 9.41946 2.09102 -0.127524
upperback 2.25888 2.69695 1.77013
thorax -3.0226 1.28778 1.58628
lowerneck -3.47879 -13.0994 -16.8548
upperneck 16.5615 -18.9562 10.6213
head 8.32902 -9.54507 4.21299
rclavicle 4.19436e-014 -8.74653e-015
rhumerus 8.16827 -16.6933 -50.1841
rradius 41.3534
rwrist -27.854
rhand -12.417 28.0765
rfingers 7.12502
rthumb 13.6551 -1.45557
lclavicle 4.19436e-014 -8.74653e-015
lhumerus -27.6052 -8.62796 86.7595
lradius 61.8508
lwrist -2.62109
lhand 2.52211 33.9736
lfingers 7.12502
lthumb 28.0038 61.9043
rfemur -22.5063 6.8467 3.4007
rtibia 28.9169
rfoot 0.932358 -5.91175
rtoes -10.6867
lfemur -20.6704 -13.7439 -19.5514
ltibia 44.6305
lfoot -11.2553 -20.4569
ltoes 9.62494
106
root 15.8484 17.4906 0.233008 -180.618 -42.4586 -177.761
lowerback 9.42287 2.13824 -0.431894
upperback 2.54848 2.72216 2.45994
thorax -2.77302 1.28906 2.4753
lowerneck -2.96398 -13.3478 -17.4212
upperneck 15.8343 -19.2765 10.912
head 8.1336 -9.71321 4.37971
rclavicle -1.19967e-013 -5.56597e-015
rhumerus 8.53551 -17.333 -48.7516
rradius 40.8701
rwrist -28.4556
rhand -11.9939 27.7728
rfingers 7.12502
rthumb 14.0629 -1.73139
lclavicle -1.19967e-013 -5.56597e-015
lhumerus -27.4893 -8.7218 87.4692
lradius 62.9833
lwrist -2.71304
lhand 2.7821 34.2218
lfingers 7.12502
lthumb 28.2523 62.1117
rfemur -21.8947 9.92975 2.48888
rtibia 27.6695
rfoot 1.65605 -5.67887
rtoes -2.70431
lfemur -20.7748 -13.9415 -18.7709
ltibia 45.4723
lfoot -11.1116 -21.156
ltoes 7.22394
107
root 15.9291 17.4749 0.109134 -181.535 -44.1785 -177.116
lowerback 10.4269 1.96046 -0.188385
upperback 2.45867 2.51616 2.58878
thorax -3.40607 1.18373 2.46777
lowerneck -2.42831 -13.4752 -17.3388
upperneck 15.5163 -19.5678 11.1733
head 7.99727 -9.85283 4.45182
rclavicle -1.89839e-014 -2.82274e-014
rhumerus 8.23771 -18.0762 -48.2548
rradius 40.5075
rwrist -28.5667
rhand -11.95 27.7445
rfingers 7.12502
rthumb 14.1052 -1.75671
lclavicle -1.89839e-014 -2.82274e-014
lhumerus -27.999 -9.20543 87.0789
lradius 64.1248
lwrist -2.37723
lhand 3.08301 33.4207
lfingers 7.12502
lthumb 28.5399 61.2626
rfemur -20.7695 12.1961 2.1193
rtibia 26.7256
rfoot 2.7853 -5.32036
rtoes -2.92703
lfemur -20.7846 -14.2139 -17.9481
ltibia 46.4693
lfoot -10.6483 -22.1518
ltoes 7.93629
108
root 15.9889 17.4394 -0.00656836 -182.284 -45.7603 -176.547
lowerback 11.2073 1.79258 0.594775
upperback 2.37068 2.38303 2.36046
thorax -3.87974 1.10963 1.78547
lowerneck -2.10464 -13.6132 -17.136
upperneck 15.4563 -19.9444 11.7018
head 8.01283 -10.0078 4.56098
rclavicle -2.28602e-014 1.27222e-014
rhumerus 7.6074 -19.0138 -48.0122
rradius 40.2746
rwrist -28.4049
rhand -11.2669 28.1855
rfingers 7.12502
rthumb 14.7633 -1.26871
lclavicle -2.28602e-014 1.27222e-014
lhumerus -28.3753 -10.057 86.2643
lradius 65.0733
lwrist -1.90553
lhand 2.35407 32.3167
lfingers 7.12502
lthumb 27.8432 60.2735
rfemur -19.8561 13.8829 1.68316
rtibia 26.0939
rfoot 3.61884 -5.43434
rtoes 0.084179
lfemur -21.1271 -14.5102 -17.2567
ltibia 47.7269
lfoot -9.61083 -23.1887
ltoes 12.9071
109
root 16.055 17.3982 -0.119437 -182.851 -47.5734 -176.102
lowerback 11.166 1.76632 0.488811
upperback 2.79 2.31055 2.81544
thorax -3.44075 1.06031 2.33741
lowerneck -1.83413 -13.9798 -17.4918
upperneck 14.849 -20.4259 12.0302
head 7.91533 -10.2308 4.66479
rclavicle -2.55438e-014 2.70347e-014
rhumerus 7.70777 -20.0067 -46.7273
rradius 40.0671
rwrist -28.1318
rhand -9.99212 28.7382
rfingers 7.12502
rthumb 15.9912 -0.621719
lclavicle -2.55438e-014 2.70347e-014
lhumerus -27.9325 -10.4397 86.4355
lradius 65.8763
lwrist -1.61331
lhand 2.22262 31.5603
lfingers 7.12502
lthumb 27.7175 59.5374
rfemur -19.1178 15.2533 1.13965
rtibia 25.817
rfoot 3.80083 -6.21124
rtoes 4.2774
lfemur -21.95 -14.9006 -16.6682
ltibia 49.277
lfoot -8.54014 -24.1038
ltoes 16.8342
110
root 16.13 17.3565 -0.229966 -183.432 -49.4427 -175.417
lowerback 11.3118 1.65805 0.601927
upperback 2.93336 2.17367 3.19561
thorax -3.37654 0.98279 2.68933
lowerneck -1.34411 -14.2894 -17.7133
upperneck 14.2926 -20.866 12.216
head 7.76263 -10.4519 4.7283
rclavicle 6.4605e-015 -4.77083e-015
rhumerus 7.45274 -20.8506 -45.5858
rradius 40.1439
rwrist -27.9707
rhand -8.96118 28.9766
rfingers 7.12502
rthumb 16.9838 -0.300872
lclavicle 6.4605e-015 -4.77083e-015
lhumerus -27.8471 -10.7373 86.4177
lradius 66.7328
lwrist -1.24123
lhand 3.63818 30.4974
lfingers 7.12502
lthumb 29.0702 58.249
rfemur -18.6365 14.58 1.42525
rtibia 25.8851
rfoot 4.63356 -4.57735
rtoes -9.49538
lfemur -23.2574 -15.0573 -15.8356
ltibia 50.993
lfoot -7.54028 -25.0679
ltoes 18.2806
